<?xml version="1.0" encoding="utf-8"?>
<!-- Generator: Adobe Illustrator 27.8.1, SVG Export Plug-In . SVG Version: 6.00 Build 0)  -->
<svg version="1.1" id="b" xmlns="http://www.w3.org/2000/svg" xmlns:xlink="http://www.w3.org/1999/xlink" x="0px" y="0px"
	 width="24px" height="24px" viewBox="0 0 24 24" enable-background="new 0 0 24 24" xml:space="preserve">
<path fill-rule="evenodd" clip-rule="evenodd" fill="#FFFFFF" d="M19.67,6.34c0-0.96-0.78-1.73-1.73-1.73H6.07
	c-0.96,0-1.74,0.78-1.74,1.73v8.3c0,0.96,0.78,1.73,1.74,1.73h2.66v1.73H6.07c-1.92,0-3.47-1.55-3.47-3.46v-8.3
	c0-1.91,1.55-3.46,3.47-3.46h11.87c1.91,0,3.46,1.55,3.46,3.46v8.3c0,1.91-1.55,3.46-3.46,3.46h-4.25l1.67,1.66
	c0.22,0.34,0.18,0.8-0.12,1.11c-0.31,0.31-0.79,0.34-1.13,0.1l-3.12-3.12c-0.34-0.34-0.34-0.89,0-1.23l3.15-3.15
	c0.34-0.22,0.8-0.18,1.1,0.12c0.3,0.3,0.35,0.76,0.13,1.1l-1.68,1.67h4.25c0.95,0,1.73-0.78,1.73-1.73V6.34z"/>
</svg>
