<?xml version="1.0" encoding="utf-8"?>
<!-- Generator: Adobe Illustrator 27.8.1, SVG Export Plug-In . SVG Version: 6.00 Build 0)  -->
<svg version="1.1" id="b" xmlns="http://www.w3.org/2000/svg" xmlns:xlink="http://www.w3.org/1999/xlink" x="0px" y="0px"
	 width="24px" height="24px" viewBox="0 0 24 24" enable-background="new 0 0 24 24" xml:space="preserve">
<path fill-rule="evenodd" clip-rule="evenodd" fill="#1DB954" d="M13.45,10.81H11.2V5.57L9.99,5.7V4.27
	c0.1-0.01,0.19-0.03,0.28-0.05c0.04-0.01,0.07-0.01,0.11-0.02c0.04-0.01,0.07-0.01,0.11-0.02c0.04-0.01,0.09-0.02,0.13-0.03
	c0.09-0.03,0.19-0.06,0.29-0.1c0.04-0.01,0.08-0.03,0.11-0.04c0.05-0.02,0.09-0.04,0.13-0.06c0.19-0.09,0.35-0.22,0.49-0.39
	c0.13-0.17,0.24-0.37,0.33-0.61h1.48V10.81z"/>
<path fill-rule="evenodd" clip-rule="evenodd" fill="#1DB954" d="M7.65,3.35h-1.4c-1.86,0-3.36,1.5-3.36,3.36v8.05
	c0,1.86,1.51,3.36,3.36,3.36h2.59v-1.68H6.24c-0.93,0-1.68-0.75-1.68-1.68V6.71c0-0.93,0.75-1.68,1.68-1.68h1.4V3.35z"/>
<path fill-rule="evenodd" clip-rule="evenodd" fill="#1DB954" d="M17.76,5.03h-1.41V3.35h1.41c1.85,0,3.36,1.5,3.36,3.36v8.05
	c0,1.86-1.51,3.36-3.36,3.36h-4.12l1.61,1.61c0.22,0.33,0.18,0.78-0.11,1.07c-0.3,0.3-0.77,0.33-1.1,0.1l-3.02-3.03
	c-0.33-0.33-0.33-0.86,0-1.19l3.05-3.06c0.33-0.21,0.78-0.17,1.07,0.12c0.3,0.29,0.34,0.74,0.12,1.07l-1.62,1.62h4.12
	c0.92,0,1.68-0.75,1.68-1.68V6.71C19.44,5.79,18.68,5.03,17.76,5.03z"/>
</svg>
