<?xml version="1.0" encoding="UTF-8"?>
<svg id="b" data-name="Layer 2" xmlns="http://www.w3.org/2000/svg" width="19.26" height="17.26" viewBox="0 0 19.26 17.26">
  <g id="c" data-name="Layer 1">
    <path d="m4.88,11.86l.05-.05c.17-.18.34-.36.5-.54h0c1.16-1.24,2.39-2.56,4.59-5.41,2-2.59,4.77-3.25,5.71-3.27h0s.59,0,.59,0l-1.23-1.24c-.22-.34-.18-.8.12-1.1.29-.29.72-.34,1.06-.15l2.73,2.73c.33.33.33.88,0,1.21l-2.85,2.85c-.33.18-.76.13-1.04-.16-.3-.3-.34-.77-.12-1.11l1.33-1.33h-.57c-.51.01-2.74.49-4.37,2.6-2.25,2.92-3.52,4.28-4.7,5.53-.17.18-.33.36-.5.54l-.03.03-.02.03c-.24.26-.79.87-1.73,1.41-1.02.59-2.45,1.09-4.41,1.07v-1.72c1.65.01,2.79-.4,3.55-.84.71-.41,1.12-.85,1.34-1.09Z" fill="#fff" fill-rule="evenodd" stroke-width="0"/>
    <path d="m4.93,5.45l-.05-.05c-.22-.24-.63-.68-1.34-1.09-.76-.44-1.9-.86-3.53-.84v-1.72c1.94-.01,3.38.49,4.39,1.07.94.54,1.49,1.15,1.73,1.41.02.02.03.04.05.05.17.18.33.36.5.54h.01c.41.45.84.91,1.33,1.45l-1.3,1.13c-.46-.52-.88-.96-1.29-1.4h0s0,0,0,0l-.26-.28c-.08-.09-.16-.17-.24-.26Z" fill="#fff" fill-rule="evenodd" stroke-width="0"/>
    <path d="m10.03,11.4c-.09-.12-.19-.24-.28-.36l1.3-1.13c.11.14.22.29.34.44,1.63,2.11,3.86,2.59,4.37,2.6h.57l-1.33-1.33c-.22-.34-.18-.81.12-1.11.28-.28.71-.33,1.04-.16l2.85,2.85c.33.34.33.88,0,1.21l-2.73,2.73c-.34.19-.77.14-1.06-.15-.3-.3-.34-.75-.12-1.1l1.23-1.24h-.59c-.94-.02-3.71-.68-5.71-3.27Z" fill="#fff" fill-rule="evenodd" stroke-width="0"/>
  </g>
</svg>