<?xml version="1.0" encoding="utf-8"?>
<!-- Generator: Adobe Illustrator 27.8.1, SVG Export Plug-In . SVG Version: 6.00 Build 0)  -->
<svg version="1.1" id="b" xmlns="http://www.w3.org/2000/svg" xmlns:xlink="http://www.w3.org/1999/xlink" x="0px" y="0px"
	 width="24px" height="24px" viewBox="0 0 24 24" enable-background="new 0 0 24 24" xml:space="preserve">
<path fill-rule="evenodd" clip-rule="evenodd" fill="#FFFFFF" d="M7.25,15.23l0.05-0.05c0.17-0.18,0.34-0.36,0.5-0.54l0,0
	c1.16-1.24,2.39-2.56,4.59-5.41c2-2.59,4.77-3.25,5.71-3.27l0,0h0.59l-1.23-1.24c-0.22-0.34-0.18-0.8,0.12-1.1
	c0.29-0.29,0.72-0.34,1.06-0.15l2.73,2.73c0.33,0.33,0.33,0.88,0,1.21l-2.85,2.85c-0.33,0.18-0.76,0.13-1.04-0.16
	c-0.3-0.3-0.34-0.77-0.12-1.11l1.33-1.33h-0.57c-0.51,0.01-2.74,0.49-4.37,2.6c-2.25,2.92-3.52,4.28-4.7,5.53
	c-0.17,0.18-0.33,0.36-0.5,0.54l-0.03,0.03L8.5,16.39c-0.24,0.26-0.79,0.87-1.73,1.41c-1.02,0.59-2.45,1.09-4.41,1.07v-1.72
	c1.65,0.01,2.79-0.4,3.55-0.84c0.71-0.41,1.12-0.85,1.34-1.09V15.23z"/>
<path fill-rule="evenodd" clip-rule="evenodd" fill="#FFFFFF" d="M7.3,8.82L7.25,8.77C7.03,8.53,6.62,8.09,5.91,7.68
	c-0.76-0.44-1.9-0.86-3.53-0.84V5.12c1.94-0.01,3.38,0.49,4.39,1.07C7.71,6.73,8.26,7.34,8.5,7.6c0.02,0.02,0.03,0.04,0.05,0.05
	c0.17,0.18,0.33,0.36,0.5,0.54h0.01C9.47,8.64,9.9,9.1,10.39,9.64l-1.3,1.13c-0.46-0.52-0.88-0.96-1.29-1.4l0,0l0,0L7.54,9.09
	C7.46,9,7.38,8.92,7.3,8.82L7.3,8.82z"/>
<path fill-rule="evenodd" clip-rule="evenodd" fill="#FFFFFF" d="M12.4,14.77c-0.09-0.12-0.19-0.24-0.28-0.36l1.3-1.13
	c0.11,0.14,0.22,0.29,0.34,0.44c1.63,2.11,3.86,2.59,4.37,2.6h0.57l-1.33-1.33c-0.22-0.34-0.18-0.81,0.12-1.11
	c0.28-0.28,0.71-0.33,1.04-0.16l2.85,2.85c0.33,0.34,0.33,0.88,0,1.21l-2.73,2.73c-0.34,0.19-0.77,0.14-1.06-0.15
	c-0.3-0.3-0.34-0.75-0.12-1.1l1.23-1.24h-0.59c-0.94-0.02-3.71-0.68-5.71-3.27L12.4,14.77z"/>
</svg>
