<?xml version="1.0" encoding="UTF-8"?>
<svg id="b" data-name="Layer 2" xmlns="http://www.w3.org/2000/svg" width="19.22" height="24" viewBox="0 0 19.22 24">
  <g id="c" data-name="Layer 1">
    <path d="m4.87,11.84l.05-.05.16-.17c.09-.09.17-.18.26-.27l.03-.03.05-.06h0s0,0,0,0h0s0,0,0,0h0c1.16-1.24,2.39-2.55,4.58-5.39,1.99-2.59,4.76-3.25,5.69-3.26h0s.59,0,.59,0l-1.23-1.23c-.21-.34-.17-.8.13-1.09.28-.29.72-.33,1.05-.15l2.73,2.73c.34.33.34.88,0,1.21l-2.84,2.84c-.34.18-.76.13-1.04-.16-.3-.3-.34-.76-.12-1.11l1.33-1.33h-.57c-.51.01-2.74.49-4.36,2.6-2.24,2.91-3.52,4.27-4.69,5.52-.17.18-.33.36-.5.53l-.05.05c-.24.26-.79.86-1.73,1.41-1.02.59-2.45,1.09-4.4,1.07v-1.71c1.64.01,2.78-.4,3.54-.84.71-.41,1.11-.85,1.33-1.09Z" fill="#fff" fill-rule="evenodd" stroke-width="0"/>
    <path d="m4.92,5.44l-.05-.05c-.22-.24-.63-.68-1.33-1.09-.76-.44-1.89-.85-3.53-.84v-1.71c1.93-.01,3.37.49,4.38,1.07.94.54,1.49,1.15,1.73,1.41h0s.04.05.04.05c.17.18.33.36.5.54.42.45.85.91,1.33,1.45l-1.29,1.12c-.46-.52-.88-.96-1.29-1.39h0s0,0,0,0c-.17-.18-.33-.36-.5-.54Z" fill="#fff" fill-rule="evenodd" stroke-width="0"/>
    <path d="m10.01,11.38c-.09-.12-.19-.24-.28-.36l1.29-1.12c.11.14.22.29.34.44,1.62,2.11,3.85,2.58,4.36,2.6h.57l-1.33-1.33c-.22-.34-.18-.81.12-1.11.28-.28.71-.33,1.04-.16l2.84,2.84c.33.33.33.88,0,1.21l-2.73,2.73c-.34.19-.77.14-1.05-.15-.3-.3-.34-.75-.13-1.09l1.23-1.23h-.59c-.93-.02-3.7-.67-5.69-3.26Z" fill="#fff" fill-rule="evenodd" stroke-width="0"/>
    <path d="m9.61,24c.95,0,1.71-.77,1.71-1.71s-.77-1.71-1.71-1.71-1.71.77-1.71,1.71.77,1.71,1.71,1.71Z" fill="#fff" fill-rule="evenodd" stroke-width="0"/>
  </g>
</svg>