<?xml version="1.0" encoding="UTF-8"?>
<svg id="a" xmlns="http://www.w3.org/2000/svg" width="32" height="32" viewBox="0 0 32 32">
  <path d="m16,0C7.17,0,0,7.17,0,16s7.17,16,16,16,16-7.17,16-16S24.83,0,16,0Z" fill="#1ed760" stroke-width="0"/>
  <path d="m26.23,14.39c-.34,0-.54-.08-.83-.25-4.59-2.74-12.81-3.4-18.12-1.92-.23.06-.52.17-.83.17-.85,0-1.5-.66-1.5-1.52s.54-1.37,1.12-1.54c2.27-.66,4.81-.98,7.58-.98,4.71,0,9.65.98,13.25,3.08.5.29.83.69.83,1.46,0,.88-.71,1.5-1.5,1.5h0Zm-2,4.92c-.34,0-.56-.15-.79-.27-4.03-2.39-10.05-3.35-15.39-1.9-.31.08-.48.17-.77.17-.69,0-1.25-.56-1.25-1.25s.34-1.15,1-1.34c1.79-.5,3.63-.88,6.31-.88,4.19,0,8.23,1.04,11.42,2.94.52.31.73.71.73,1.27,0,.7-.55,1.26-1.25,1.26Zm-1.74,4.23c-.27,0-.44-.08-.69-.23-4.03-2.43-8.71-2.53-13.34-1.58-.25.06-.58.17-.77.17-.63,0-1.02-.5-1.02-1.02,0-.66.39-.98.88-1.08,5.28-1.17,10.68-1.06,15.29,1.69.39.25.63.48.63,1.06s-.46.99-.98.99h0Z" stroke-width="0"/>
</svg>